<svg width="152" height="42" viewBox="0 0 152 42" fill="none" xmlns="http://www.w3.org/2000/svg">
<g clip-path="url(#clip0_89_83)">
<path d="M50.1653 5.8753C52.1778 5.10896 54.2115 4.74707 56.4995 4.74707C62.2405 4.74707 67.3672 7.40799 70.7356 11.559C71.1805 12.1125 71.477 12.815 71.477 13.56C71.477 14.6031 71.0322 15.4759 70.2483 16.0507L70.206 16.1145C69.6763 16.4977 69.0196 16.7319 68.3205 16.7319C67.3249 16.7319 66.4351 16.2635 65.8631 15.5611C65.1852 14.7096 64.4014 13.9858 63.5328 13.3472C61.5626 11.9422 59.1264 11.0907 56.5207 11.0907C55.0166 11.0907 53.6819 11.3462 52.3685 11.8571C49.8263 12.7937 47.6655 14.5606 46.2673 16.817C45.1445 18.669 44.4666 20.8403 44.4666 23.1394C44.4666 24.8424 44.8479 26.4602 45.4623 27.929C46.3097 29.8875 47.6231 31.5905 49.2967 32.8464C51.2881 34.3365 53.7879 35.2306 56.4783 35.2306C60.228 35.2306 63.6387 33.4425 65.8419 30.7177C66.4139 29.9726 67.3037 29.5043 68.2993 29.5043C70.0365 29.5043 71.4559 30.9305 71.4559 32.6761C71.4559 33.4212 71.2016 34.1237 70.7568 34.6771C67.3884 38.8707 62.2617 41.5742 56.4783 41.5742C46.3732 41.5742 38.1536 33.336 38.1536 23.1394C38.1536 19.5631 39.1916 16.1997 40.9499 13.3472C43.0896 9.98377 46.3944 7.32284 50.1653 5.8753Z" fill="#646464"/>
<path d="M88.0859 5.8753C90.0985 5.10896 92.1322 4.74707 94.4201 4.74707C100.161 4.74707 105.288 7.40799 108.656 11.559C109.101 12.1125 109.377 12.815 109.377 13.56C109.377 14.6031 108.91 15.4759 108.148 16.0507L108.105 16.1145C107.576 16.4977 106.919 16.7319 106.22 16.7319C105.224 16.7319 104.356 16.2635 103.763 15.5398C103.085 14.6883 102.301 13.9645 101.411 13.3259C99.4409 11.8996 97.0259 11.0694 94.399 11.0694C92.8948 11.0694 91.5602 11.3249 90.2468 11.8358C87.7682 12.7937 85.5861 14.5606 84.1879 16.817C83.0652 18.6477 82.3872 20.819 82.3872 23.1607C82.3872 24.8424 82.7686 26.4602 83.4041 27.929C84.2303 29.8875 85.5649 31.5905 87.2385 32.8464C89.2299 34.3578 91.7297 35.2519 94.399 35.2519C98.1698 35.2519 101.559 33.4637 103.763 30.739C104.335 30.0152 105.224 29.5256 106.22 29.5256C107.978 29.5256 109.377 30.9518 109.377 32.6974C109.377 33.4425 109.101 34.1449 108.677 34.6771C105.309 38.892 100.182 41.5742 94.399 41.5742C84.2939 41.5742 76.0742 33.336 76.0742 23.1607C76.0742 19.5418 77.1123 16.1997 78.8918 13.3685C81.0102 9.98377 84.3151 7.30156 88.0859 5.8753Z" fill="#646464"/>
<path d="M118.147 34.6772C121.515 38.8708 126.642 41.553 132.425 41.553C142.552 41.553 150.75 33.3148 150.75 23.1181C150.75 19.5418 149.733 16.1784 147.954 13.3472C147.382 12.4531 146.386 11.8358 145.263 11.8358C143.526 11.8358 142.107 13.2621 142.107 15.0076C142.107 15.625 142.34 16.3062 142.636 16.7958C143.78 18.6478 144.437 20.8191 144.437 23.1181C144.437 24.8211 144.077 26.439 143.441 27.9078C142.594 29.8662 141.281 31.5692 139.607 32.8252C137.595 34.3153 135.116 35.2094 132.425 35.2094C128.655 35.2094 125.265 33.4212 123.062 30.6964C121.367 28.6103 120.393 26.0345 120.393 23.1181C120.393 19.0948 122.363 15.4972 125.413 13.3046C127.384 11.8997 129.799 11.0482 132.425 11.0482C133.908 11.0482 135.264 11.3036 136.578 11.8145C136.917 11.9423 137.277 12.0061 137.658 12.0061C139.395 12.0061 140.815 10.5799 140.815 8.83429C140.815 7.4719 139.946 6.3011 138.738 5.85406C136.726 5.08772 134.692 4.72583 132.404 4.72583C126.663 4.72583 121.515 7.38675 118.147 11.5378C115.584 14.7096 114.058 18.7542 114.058 23.1394C114.08 27.5246 115.605 31.5266 118.147 34.6772Z" fill="#646464"/>
<path d="M12.2872 5.8753C11.0796 6.32234 10.2322 7.49314 10.2322 8.85553C10.2322 10.6011 11.6516 12.0274 13.3888 12.0274C13.7701 12.0274 14.1302 11.9635 14.4692 11.8358C15.7826 11.3462 17.1384 11.0694 18.6426 11.0694C21.2483 11.0694 23.7057 11.9635 25.6759 13.3897L7.62653 27.929C7.01217 26.4602 6.65203 24.8636 6.65203 23.1819C6.65203 20.8403 7.30876 18.669 8.43154 16.8383C8.74931 16.3487 8.98235 15.6675 8.98235 15.0502C8.98235 13.3046 7.58416 11.8783 5.82583 11.8783C4.70304 11.8783 3.70736 12.4957 3.15656 13.3685C1.33468 16.1997 0.296631 19.5631 0.296631 23.1819C0.296631 33.336 8.4951 41.5742 18.6214 41.5742C24.4048 41.5742 29.5527 38.892 32.8998 34.6771C33.3447 34.1449 33.5989 33.4425 33.5989 32.6974C33.5989 30.9518 32.1796 29.5256 30.4424 29.5256C29.4467 29.5256 28.557 29.9939 27.985 30.7177C25.7818 33.4425 22.3922 35.2306 18.6426 35.2306C15.9521 35.2306 13.4735 34.3152 11.461 32.8251L32.3279 16.0507C33.1117 15.4546 33.5777 14.6031 33.5777 13.56C33.5777 12.815 33.2812 12.0912 32.8363 11.559C29.4891 7.40799 24.3412 4.74707 18.6002 4.74707C16.3546 4.74707 14.2997 5.13024 12.2872 5.8753Z" fill="#646464"/>
<path d="M144.522 4.34271C144.522 2.59714 145.941 1.17089 147.7 1.17089C149.437 1.17089 150.856 2.59714 150.856 4.34271C150.856 6.08827 149.437 7.51452 147.7 7.51452C145.941 7.51452 144.522 6.08827 144.522 4.34271ZM143.759 4.34271C143.759 6.51402 145.518 8.28087 147.678 8.28087C149.839 8.28087 151.598 6.51402 151.598 4.34271C151.598 2.17139 149.839 0.404541 147.678 0.404541C145.518 0.404541 143.759 2.17139 143.759 4.34271Z" fill="#646464"/>
<path d="M146.428 2.38431H147.255C148.102 2.38431 149.077 2.36302 149.077 3.44868C149.077 3.917 148.759 4.30017 148.271 4.36403V4.38532C148.505 4.40661 148.61 4.61948 148.695 4.78978L149.31 6.30119H148.441L147.975 5.0878C147.869 4.78978 147.763 4.68334 147.445 4.68334H147.191V6.30119H146.407V2.38431H146.428ZM147.212 4.06601H147.466C147.848 4.06601 148.293 4.00215 148.293 3.51254C148.293 3.04422 147.869 3.00164 147.466 3.00164H147.212V4.06601Z" fill="#646464"/>
</g>
<defs>
<clipPath id="clip0_89_83">
<rect width="152" height="42" fill="white"/>
</clipPath>
</defs>
</svg>
